<svg width="720" height="400" viewBox="0 0 720 400" xmlns="http://www.w3.org/2000/svg" font-family="-apple-system, BlinkMacSystemFont, 'Segoe UI', Roboto, Helvetica, Arial, sans-serif, 'Apple Color Emoji', 'Segoe UI Emoji', 'Segoe UI Symbol'">
  <style>
    .background { fill: #f8f9fa; }
    .title { font-size: 18px; font-weight: bold; text-anchor: middle; fill: #212529; }
    .label { font-size: 14px; font-weight: bold; text-anchor: end; fill: #495057; }
    .task { stroke: #343a40; stroke-width: 1; rx: 4; ry: 4; }
    .cpu-task { fill: #cfe2ff; }
    .disk-task { fill: #fff3cd; }
    .isr-task { fill: #f8d7da; }
    .task-text { font-size: 12px; text-anchor: middle; fill: #343a40; }
    .arrow { marker-end: url(#arrowhead); stroke-width: 1.5; fill: none; }
    .event-arrow { stroke: #d62828; }
    .time-arrow { stroke: #6c757d; }
    .step-circle { fill: #007bff; stroke: white; stroke-width: 2; }
    .step-text { fill: white; font-size: 12px; font-weight: bold; text-anchor: middle; }
    .explanation { font-size: 12px; fill: #495057; }
  </style>

  <defs>
    <marker id="arrowhead" viewBox="0 0 10 10" refX="8" refY="5" markerWidth="6" markerHeight="6" orient="auto-start-reverse">
      <path d="M 0 0 L 10 5 L 0 10 z" fill="#d62828"/>
    </marker>
    <marker id="time-arrowhead" viewBox="0 0 10 10" refX="8" refY="5" markerWidth="6" markerHeight="6" orient="auto-start-reverse">
      <path d="M 0 0 L 10 5 L 0 10 z" fill="#6c757d"/>
    </marker>
  </defs>

  <rect width="100%" height="100%" class="background"/>
  <text x="360" y="40" class="title">디스크 읽기 인터럽트 예시</text>

  <!-- Time Axis -->
  <path class="arrow time-arrow" marker-end="url(#time-arrowhead)" d="M 100 350 H 680" />
  <text x="690" y="355" style="fill: #6c757d;">시간</text>

  <!-- CPU Timeline -->
  <text x="80" y="125" class="label">CPU</text>
  <rect x="100" y="100" width="120" height="50" class="task cpu-task" />
  <text x="160" y="130" class="task-text">기타 작업</text>

  <rect x="220" y="100" width="100" height="50" class="task cpu-task" />
  <text x="270" y="122" class="task-text">디스크 읽기</text>
  <text x="270" y="138" class="task-text">요청</text>

  <rect x="320" y="100" width="180" height="50" class="task cpu-task" />
  <text x="410" y="130" class="task-text">다른 작업 수행 (대기 안함)</text>

  <rect x="500" y="100" width="120" height="50" class="task isr-task" />
  <text x="560" y="122" class="task-text">데이터 처리</text>
  <text x="560" y="138" class="task-text">(ISR 실행)</text>

  <!-- Disk Timeline -->
  <text x="80" y="255" class="label">Disk</text>
  <rect x="100" y="230" width="220" height="50" class="task disk-task" style="fill:#e9ecef;" />
  <text x="210" y="260" class="task-text">유휴 (Idle)</text>

  <rect x="320" y="230" width="180" height="50" class="task disk-task" />
  <text x="410" y="260" class="task-text">데이터 검색</text>

  <rect x="500" y="230" width="120" height="50" class="task disk-task" style="fill:#e9ecef;" />
  <text x="560" y="260" class="task-text">유휴 (Idle)</text>

  <!-- Events and Arrows -->
  <!-- 1. Disk Request -->
  <circle cx="270" cy="175" r="12" class="step-circle" />
  <text x="270" y="179" class="step-text">1</text>
  <path class="arrow event-arrow" d="M 270 150 v 55" />
  <path class="arrow event-arrow" d="M 270 205 v 25" />
  <text x="180" y="195" class="explanation">1. CPU가 디스크에 데이터 요청</text>

  <!-- 2. CPU does other work -->
  <circle cx="410" cy="175" r="12" class="step-circle" />
  <text x="410" y="179" class="step-text">2</text>
  <path class="arrow event-arrow" style="stroke-dasharray: 4,4; marker-end: none;" d="M 410 150 v -40" />
  <path class="arrow event-arrow" style="stroke-dasharray: 4,4; marker-end: none;" d="M 410 230 v 40" />
  <text x="320" y="215" class="explanation">2. 디스크가 바쁜 동안 CPU는 다른 작업 수행</text>

  <!-- 3. Interrupt -->
  <circle cx="500" cy="205" r="12" class="step-circle" />
  <text x="500" y="209" class="step-text">3</text>
  <path class="arrow event-arrow" d="M 500 230 v -25" />
  <path class="arrow event-arrow" d="M 500 180 v -30" />
  <text x="515" y="195" class="explanation">3. 데이터 준비 완료 후</text>
  <text x="515" y="210" class="explanation">   디스크가 인터럽트 발생</text>

  <!-- 4. ISR Execution -->
  <circle cx="560" cy="75" r="12" class="step-circle" />
  <text x="560" y="79" class="step-text">4</text>
  <path class="arrow event-arrow" style="stroke-dasharray: 4,4; marker-end: none;" d="M 560 87 v 13" />
  <text x="440" y="70" class="explanation">4. CPU는 하던 일을 멈추고</text>
  <text x="440" y="85" class="explanation">   인터럽트 처리 (데이터 수신)</text>
</svg>