<?xml version="1.0" encoding="UTF-8"?>
<svg width="900" height="700" viewBox="0 0 900 700" xmlns="http://www.w3.org/2000/svg">
    <!-- Title -->
    <text x="450" y="30" text-anchor="middle" font-size="24" font-weight="bold">Java Compilation and Execution Flow</text>
    
    <!-- Java Source Code -->
    <g transform="translate(350, 80)">
        <rect x="0" y="0" width="200" height="80" fill="#e8f4f8" stroke="#0066cc" stroke-width="2" rx="10"/>
        <text x="100" y="30" text-anchor="middle" font-size="16" font-weight="bold">Java Source Code</text>
        <text x="100" y="50" text-anchor="middle" font-size="14" fill="#666">HelloWorld.java</text>
        <text x="100" y="68" text-anchor="middle" font-size="12" fill="#888" font-family="monospace">public class HelloWorld</text>
    </g>
    
    <!-- Arrow to Compiler -->
    <path d="M 450 160 L 450 200" stroke="#333" stroke-width="2" marker-end="url(#arrowhead)"/>
    <text x="460" y="185" font-size="14">javac</text>
    
    <!-- Java Compiler -->
    <g transform="translate(300, 210)">
        <rect x="0" y="0" width="300" height="60" fill="#fff0e0" stroke="#ff6600" stroke-width="2" rx="30"/>
        <text x="150" y="25" text-anchor="middle" font-size="16" font-weight="bold">Java Compiler</text>
        <text x="150" y="45" text-anchor="middle" font-size="14" fill="#666">(Platform Independent)</text>
    </g>
    
    <!-- Arrow to Bytecode -->
    <path d="M 450 270 L 450 310" stroke="#333" stroke-width="2" marker-end="url(#arrowhead)"/>
    
    <!-- Java Bytecode -->
    <g transform="translate(350, 320)">
        <rect x="0" y="0" width="200" height="80" fill="#f0e8ff" stroke="#6600cc" stroke-width="2" rx="10"/>
        <text x="100" y="30" text-anchor="middle" font-size="16" font-weight="bold">Java Bytecode</text>
        <text x="100" y="50" text-anchor="middle" font-size="14" fill="#666">HelloWorld.class</text>
        <text x="100" y="68" text-anchor="middle" font-size="12" fill="#888" font-family="monospace">0: getstatic #2</text>
    </g>
    
    <!-- Distribution line -->
    <line x1="150" y1="440" x2="750" y2="440" stroke="#999" stroke-width="2" stroke-dasharray="10,5"/>
    <text x="450" y="435" text-anchor="middle" font-size="12" fill="#666">Platform Independent Distribution</text>
    
    <!-- Multiple JVMs -->
    <g transform="translate(50, 480)">
        <!-- Windows JVM -->
        <g transform="translate(0, 0)">
            <rect x="0" y="0" width="180" height="60" fill="#e8ffe8" stroke="#00cc00" stroke-width="2" rx="10"/>
            <text x="90" y="25" text-anchor="middle" font-size="14" font-weight="bold">JVM for Windows</text>
            <text x="90" y="45" text-anchor="middle" font-size="12" fill="#666">JIT Compiler + Interpreter</text>
            
            <!-- Arrow -->
            <path d="M 90 60 L 90 90" stroke="#333" stroke-width="2" marker-end="url(#arrowhead)"/>
            
            <!-- Windows Machine -->
            <rect x="0" y="100" width="180" height="50" fill="#f0f0f0" stroke="#666" stroke-width="2"/>
            <text x="90" y="130" text-anchor="middle" font-size="14">Windows Machine Code</text>
        </g>
        
        <!-- Mac JVM -->
        <g transform="translate(250, 0)">
            <rect x="0" y="0" width="180" height="60" fill="#e8ffe8" stroke="#00cc00" stroke-width="2" rx="10"/>
            <text x="90" y="25" text-anchor="middle" font-size="14" font-weight="bold">JVM for macOS</text>
            <text x="90" y="45" text-anchor="middle" font-size="12" fill="#666">JIT Compiler + Interpreter</text>
            
            <!-- Arrow -->
            <path d="M 90 60 L 90 90" stroke="#333" stroke-width="2" marker-end="url(#arrowhead)"/>
            
            <!-- Mac Machine -->
            <rect x="0" y="100" width="180" height="50" fill="#f0f0f0" stroke="#666" stroke-width="2"/>
            <text x="90" y="130" text-anchor="middle" font-size="14">macOS Machine Code</text>
        </g>
        
        <!-- Linux JVM -->
        <g transform="translate(500, 0)">
            <rect x="0" y="0" width="180" height="60" fill="#e8ffe8" stroke="#00cc00" stroke-width="2" rx="10"/>
            <text x="90" y="25" text-anchor="middle" font-size="14" font-weight="bold">JVM for Linux</text>
            <text x="90" y="45" text-anchor="middle" font-size="12" fill="#666">JIT Compiler + Interpreter</text>
            
            <!-- Arrow -->
            <path d="M 90 60 L 90 90" stroke="#333" stroke-width="2" marker-end="url(#arrowhead)"/>
            
            <!-- Linux Machine -->
            <rect x="0" y="100" width="180" height="50" fill="#f0f0f0" stroke="#666" stroke-width="2"/>
            <text x="90" y="130" text-anchor="middle" font-size="14">Linux Machine Code</text>
        </g>
    </g>
    
    <!-- Arrows from bytecode to JVMs -->
    <path d="M 350 360 L 140 480" stroke="#6600cc" stroke-width="2" marker-end="url(#arrowhead)" stroke-dasharray="5,5"/>
    <path d="M 450 400 L 390 480" stroke="#6600cc" stroke-width="2" marker-end="url(#arrowhead)" stroke-dasharray="5,5"/>
    <path d="M 550 360 L 640 480" stroke="#6600cc" stroke-width="2" marker-end="url(#arrowhead)" stroke-dasharray="5,5"/>
    
    <!-- Write Once, Run Anywhere -->
    <rect x="275" y="660" width="350" height="30" fill="#ffffcc" stroke="#cccc00" stroke-width="2" rx="15"/>
    <text x="450" y="680" text-anchor="middle" font-size="16" font-weight="bold">"Write Once, Run Anywhere"</text>
    
    <!-- Arrow marker definition -->
    <defs>
        <marker id="arrowhead" markerWidth="10" markerHeight="7" refX="9" refY="3.5" orient="auto">
            <polygon points="0 0, 10 3.5, 0 7" fill="#333"/>
        </marker>
    </defs>
</svg>