<?xml version="1.0" encoding="UTF-8"?>
<svg width="900" height="700" xmlns="http://www.w3.org/2000/svg">
  <!-- Title -->
  <text x="450" y="30" text-anchor="middle" font-size="24" font-weight="bold" font-family="Arial, sans-serif">멀티태스킹과 스레드</text>
  
  <!-- Time-sharing diagram -->
  <g transform="translate(50, 70)">
    <text x="0" y="0" font-size="18" font-weight="bold" font-family="Arial, sans-serif">시분할 멀티태스킹</text>
    
    <!-- Time axis -->
    <line x1="50" y1="150" x2="750" y2="150" stroke="#333" stroke-width="2" marker-end="url(#arrow)"/>
    <text x="770" y="155" font-size="14" font-family="Arial, sans-serif">시간</text>
    
    <!-- Time markers -->
    <g font-size="12" font-family="Arial, sans-serif">
      <line x1="50" y1="145" x2="50" y2="155" stroke="#333" stroke-width="2"/>
      <text x="50" y="170" text-anchor="middle">0ms</text>
      
      <line x1="150" y1="145" x2="150" y2="155" stroke="#333" stroke-width="2"/>
      <text x="150" y="170" text-anchor="middle">10ms</text>
      
      <line x1="250" y1="145" x2="250" y2="155" stroke="#333" stroke-width="2"/>
      <text x="250" y="170" text-anchor="middle">20ms</text>
      
      <line x1="350" y1="145" x2="350" y2="155" stroke="#333" stroke-width="2"/>
      <text x="350" y="170" text-anchor="middle">30ms</text>
      
      <line x1="450" y1="145" x2="450" y2="155" stroke="#333" stroke-width="2"/>
      <text x="450" y="170" text-anchor="middle">40ms</text>
      
      <line x1="550" y1="145" x2="550" y2="155" stroke="#333" stroke-width="2"/>
      <text x="550" y="170" text-anchor="middle">50ms</text>
      
      <line x1="650" y1="145" x2="650" y2="155" stroke="#333" stroke-width="2"/>
      <text x="650" y="170" text-anchor="middle">60ms</text>
    </g>
    
    <!-- Thread A -->
    <g transform="translate(0, 30)">
      <text x="0" y="10" font-size="14" font-family="Arial, sans-serif">스레드 A:</text>
      <rect x="50" y="0" width="100" height="30" fill="#ff9999" stroke="#333" stroke-width="1"/>
      <rect x="350" y="0" width="100" height="30" fill="#ff9999" stroke="#333" stroke-width="1"/>
      <rect x="650" y="0" width="100" height="30" fill="#ff9999" stroke="#333" stroke-width="1"/>
      <text x="100" y="20" text-anchor="middle" font-size="12" font-family="Arial, sans-serif">실행중</text>
    </g>
    
    <!-- Thread B -->
    <g transform="translate(0, 70)">
      <text x="0" y="10" font-size="14" font-family="Arial, sans-serif">스레드 B:</text>
      <rect x="150" y="0" width="100" height="30" fill="#99ff99" stroke="#333" stroke-width="1"/>
      <rect x="450" y="0" width="100" height="30" fill="#99ff99" stroke="#333" stroke-width="1"/>
      <text x="200" y="20" text-anchor="middle" font-size="12" font-family="Arial, sans-serif">실행중</text>
    </g>
    
    <!-- Thread C -->
    <g transform="translate(0, 110)">
      <text x="0" y="10" font-size="14" font-family="Arial, sans-serif">스레드 C:</text>
      <rect x="250" y="0" width="100" height="30" fill="#9999ff" stroke="#333" stroke-width="1"/>
      <rect x="550" y="0" width="100" height="30" fill="#9999ff" stroke="#333" stroke-width="1"/>
      <text x="300" y="20" text-anchor="middle" font-size="12" font-family="Arial, sans-serif">실행중</text>
    </g>
    
    <!-- User perception -->
    <g transform="translate(0, 200)">
      <rect x="0" y="0" width="800" height="60" fill="#fffacd" stroke="#333" stroke-width="1" rx="5"/>
      <text x="400" y="25" text-anchor="middle" font-size="16" font-weight="bold" font-family="Arial, sans-serif">사용자 관점</text>
      <text x="400" y="45" text-anchor="middle" font-size="14" font-family="Arial, sans-serif">모든 프로그램이 동시에 실행되는 것처럼 보임! (CPU가 매우 빠르게 전환)</text>
    </g>
  </g>
  
  <!-- Thread State Diagram -->
  <g transform="translate(50, 380)">
    <text x="350" y="0" text-anchor="middle" font-size="18" font-weight="bold" font-family="Arial, sans-serif">스레드 상태 전이도</text>
    
    <!-- States -->
    <g transform="translate(150, 30)">
      <!-- Created -->
      <circle cx="200" cy="50" r="40" fill="#f0f0f0" stroke="#333" stroke-width="2"/>
      <text x="200" y="55" text-anchor="middle" font-size="14" font-family="Arial, sans-serif">생성됨</text>
      
      <!-- Ready -->
      <circle cx="200" cy="150" r="40" fill="#ffe6cc" stroke="#333" stroke-width="2"/>
      <text x="200" y="155" text-anchor="middle" font-size="14" font-family="Arial, sans-serif">준비됨</text>
      
      <!-- Running -->
      <circle cx="350" cy="150" r="40" fill="#ccffcc" stroke="#333" stroke-width="2"/>
      <text x="350" y="155" text-anchor="middle" font-size="14" font-family="Arial, sans-serif">실행중</text>
      
      <!-- Waiting -->
      <circle cx="500" cy="150" r="40" fill="#ffcccc" stroke="#333" stroke-width="2"/>
      <text x="500" y="155" text-anchor="middle" font-size="14" font-family="Arial, sans-serif">대기중</text>
      
      <!-- Transitions -->
      <g stroke="#333" stroke-width="2" fill="none" marker-end="url(#arrow)">
        <!-- Created to Ready -->
        <path d="M 200 90 L 200 110"/>
        
        <!-- Ready to Running -->
        <path d="M 240 150 L 310 150"/>
        
        <!-- Running to Ready (preemption) -->
        <path d="M 310 140 Q 275 100 240 140"/>
        
        <!-- Running to Waiting -->
        <path d="M 390 150 L 460 150"/>
        
        <!-- Waiting to Ready -->
        <path d="M 460 140 Q 350 70 240 140"/>
      </g>
      
      <!-- Labels -->
      <text x="200" y="105" text-anchor="middle" font-size="12" font-family="Arial, sans-serif">시작</text>
      <text x="275" y="145" text-anchor="middle" font-size="12" font-family="Arial, sans-serif">스케줄</text>
      <text x="275" y="95" text-anchor="middle" font-size="12" font-family="Arial, sans-serif">시간만료</text>
      <text x="425" y="145" text-anchor="middle" font-size="12" font-family="Arial, sans-serif">I/O 대기</text>
      <text x="350" y="65" text-anchor="middle" font-size="12" font-family="Arial, sans-serif">I/O 완료</text>
    </g>
    
    <!-- State descriptions -->
    <g transform="translate(50, 250)">
      <rect x="0" y="0" width="700" height="100" fill="#f5f5f5" stroke="#333" stroke-width="1" rx="5"/>
      <text x="10" y="20" font-size="14" font-weight="bold" font-family="Arial, sans-serif">상태 설명:</text>
      <text x="10" y="40" font-size="12" font-family="Arial, sans-serif">• 생성됨: 스레드가 생성되었지만 아직 실행 준비가 안 됨</text>
      <text x="10" y="55" font-size="12" font-family="Arial, sans-serif">• 준비됨: 실행할 준비가 되었지만 CPU를 기다리는 중</text>
      <text x="10" y="70" font-size="12" font-family="Arial, sans-serif">• 실행중: 현재 CPU를 사용하여 실행되고 있음</text>
      <text x="10" y="85" font-size="12" font-family="Arial, sans-serif">• 대기중: I/O 작업이나 다른 이벤트를 기다리는 중 (키보드 입력, 디스크 읽기 등)</text>
    </g>
  </g>
  
  <!-- Preemptive Multitasking -->
  <g transform="translate(500, 70)">
    <rect x="-20" y="-10" width="350" height="250" fill="#f0f0ff" stroke="#333" stroke-width="2" rx="5"/>
    <text x="155" y="10" text-anchor="middle" font-size="16" font-weight="bold" font-family="Arial, sans-serif">선점형 멀티태스킹</text>
    
    <!-- Timer -->
    <rect x="110" y="30" width="100" height="40" fill="#ffff99" stroke="#333" stroke-width="2" rx="5"/>
    <text x="160" y="55" text-anchor="middle" font-size="14" font-family="Arial, sans-serif">타이머</text>
    
    <!-- Timer interrupts -->
    <g stroke="#ff0000" stroke-width="2" marker-end="url(#arrowred)">
      <path d="M 160 70 L 160 100"/>
      <path d="M 140 80 L 140 100"/>
      <path d="M 180 80 L 180 100"/>
    </g>
    <text x="160" y="95" text-anchor="middle" font-size="12" font-family="Arial, sans-serif" fill="#ff0000">10ms마다</text>
    <text x="160" y="110" text-anchor="middle" font-size="12" font-family="Arial, sans-serif" fill="#ff0000">인터럽트!</text>
    
    <!-- Features -->
    <g transform="translate(10, 130)">
      <text x="0" y="0" font-size="14" font-weight="bold" font-family="Arial, sans-serif">특징:</text>
      <text x="0" y="20" font-size="12" font-family="Arial, sans-serif">✓ 스레드가 자발적으로 양보 안 해도 됨</text>
      <text x="0" y="40" font-size="12" font-family="Arial, sans-serif">✓ 타이머가 강제로 CPU 사용권 전환</text>
      <text x="0" y="60" font-size="12" font-family="Arial, sans-serif">✓ 모든 스레드가 공평한 실행 기회</text>
      <text x="0" y="80" font-size="12" font-family="Arial, sans-serif">✓ 현대 OS의 표준 방식</text>
    </g>
  </g>
  
  <!-- Arrow markers -->
  <defs>
    <marker id="arrow" markerWidth="10" markerHeight="10" refX="8" refY="3" orient="auto" markerUnits="strokeWidth">
      <path d="M0,0 L0,6 L9,3 z" fill="#333"/>
    </marker>
    <marker id="arrowred" markerWidth="10" markerHeight="10" refX="8" refY="3" orient="auto" markerUnits="strokeWidth">
      <path d="M0,0 L0,6 L9,3 z" fill="#ff0000"/>
    </marker>
  </defs>
</svg>