<svg width="720" height="420" viewBox="0 0 720 420" xmlns="http://www.w3.org/2000/svg" font-family="-apple-system, BlinkMacSystemFont, 'Segoe UI', Roboto, Helvetica, Arial, sans-serif, 'Apple Color Emoji', 'Segoe UI Emoji', 'Segoe UI Symbol'">
  <style>
    .background { fill: #f8f9fa; }
    .title { font-size: 18px; font-weight: bold; text-anchor: middle; fill: #212529; }
    .label { font-size: 14px; font-weight: bold; text-anchor: end; fill: #495057; }
    .time-axis { stroke: #6c757d; stroke-width: 1.5; marker-end: url(#time-arrowhead); }
    .time-tick { stroke: #6c757d; stroke-width: 1; }
    .time-text { font-size: 12px; text-anchor: middle; fill: #6c757d; }
    .task-block { stroke: #343a40; stroke-width: 1; rx: 4; ry: 4; }
    .prog-a { fill: #0d6efd; }
    .prog-b { fill: #198754; }
    .prog-c { fill: #dc3545; }
    .timeline-bg { fill: #e9ecef; rx: 4; ry: 4;}
    .interrupt-arrow { marker-end: url(#interrupt-arrowhead); stroke: #d62828; stroke-width: 1.5; fill: none; }
    .interrupt-text { font-size: 12px; font-weight: bold; text-anchor: middle; fill: #d62828; }
    .explanation { font-size: 13px; fill: #212529; }
    .highlight { font-weight: bold; fill: #d62828; }
  </style>

  <defs>
    <marker id="time-arrowhead" viewBox="0 0 10 10" refX="8" refY="5" markerWidth="6" markerHeight="6" orient="auto-start-reverse">
      <path d="M 0 0 L 10 5 L 0 10 z" fill="#6c757d"/>
    </marker>
    <marker id="interrupt-arrowhead" viewBox="0 0 10 10" refX="8" refY="5" markerWidth="6" markerHeight="6" orient="auto-start-reverse">
      <path d="M 0 0 L 10 5 L 0 10 z" fill="#d62828"/>
    </marker>
  </defs>

  <rect width="100%" height="100%" class="background"/>
  <text x="360" y="40" class="title">선점형 멀티태스킹 동작</text>

  <g id="timer-timeline">
    <text x="80" y="85" class="label">타이머:</text>
    <path class="time-axis" d="M 100 80 H 670" />
    <text x="680" y="85" class="time-text">시간</text>
    <g class="interrupt-text">
      <text x="145" y="70">10ms</text>
      <path class="interrupt-arrow" d="M 145 85 v 20" />
      <text x="145" y="120">INT</text>

      <text x="235" y="70">20ms</text>
      <path class="interrupt-arrow" d="M 235 85 v 20" />
      <text x="235" y="120">INT</text>

      <text x="325" y="70">30ms</text>
      <path class="interrupt-arrow" d="M 325 85 v 20" />
      <text x="325" y="120">INT</text>

      <text x="415" y="70">40ms</text>
      <path class="interrupt-arrow" d="M 415 85 v 20" />
      <text x="415" y="120">INT</text>

      <text x="505" y="70">50ms</text>
      <path class="interrupt-arrow" d="M 505 85 v 20" />
      <text x="505" y="120">INT</text>

      <text x="595" y="70">60ms</text>
      <path class="interrupt-arrow" d="M 595 85 v 20" />
      <text x="595" y="120">INT</text>
    </g>
  </g>

  <g id="thread-timelines" transform="translate(0, 150)">
    <rect x="100" y="10" width="540" height="30" class="timeline-bg" />
    <text x="80" y="30" class="label">스레드 A:</text>
    <rect x="100" y="10" width="90" height="30" class="task-block prog-a" />
    <rect x="370" y="10" width="90" height="30" class="task-block prog-a" />

    <rect x="100" y="60" width="540" height="30" class="timeline-bg" />
    <text x="80" y="80" class="label">스레드 B:</text>
    <rect x="190" y="60" width="90" height="30" class="task-block prog-b" />
    <rect x="460" y="60" width="90" height="30" class="task-block prog-b" />

    <rect x="100" y="110" width="540" height="30" class="timeline-bg" />
    <text x="80" y="130" class="label">스레드 C:</text>
    <rect x="280" y="110" width="90" height="30" class="task-block prog-c" />
    <rect x="550" y="110" width="90" height="30" class="task-block prog-c" />
  </g>

  <g transform="translate(50, 340)">
    <text class="explanation">
      <tspan x="0" dy="1.2em">• 일정한 간격으로 <tspan class="highlight">타이머 인터럽트(INT)</tspan>가 발생합니다.</tspan>
      <tspan x="0" dy="1.5em">• 인터럽트가 발생할 때마다 운영체제는 현재 실행 중인 스레드를 멈추고</tspan>
      <tspan x="0" dy="1.5em">  다음 순서의 스레드에게 강제로 CPU 사용권을 넘깁니다 (Context Switching).</tspan>
    </text>
  </g>

</svg>